<svg width="158" height="31" viewBox="0 0 158 31" fill="none" xmlns="http://www.w3.org/2000/svg">
<mask id="mask0_1633_32673" style="mask-type:luminance" maskUnits="userSpaceOnUse" x="0" y="0" width="158" height="31">
<path d="M0 30.6524H158V0H0V30.6524Z" fill="white"/>
</mask>
<g mask="url(#mask0_1633_32673)">
<path fill-rule="evenodd" clip-rule="evenodd" d="M20.0125 19.9457L22.4167 17.5369C22.4396 17.615 22.4622 17.6921 22.4845 17.768C22.5137 17.8667 22.5421 17.9631 22.569 18.057C22.6851 18.4592 22.7818 18.8313 22.8308 19.1922C22.9162 19.8174 22.8586 20.3899 22.4802 20.9627L21.7571 21.687C20.8549 22.5906 19.5394 22.9436 18.3066 22.6131L17.5985 22.4235L19.8912 20.1308L19.8442 20.0839C19.9039 20.0439 19.9604 19.9979 20.0125 19.9457ZM18.1889 20.03L12.9957 18.6384C12.6143 18.5359 12.3159 18.238 12.2141 17.856L10.6198 11.8852C10.5182 11.5044 10.6271 11.0984 10.9054 10.8195L15.2716 6.44554C15.5508 6.16604 15.9579 6.0566 16.3395 6.15877L22.2884 7.75274C22.6701 7.85491 22.9677 8.15328 23.0697 8.53524L24.6641 14.5059C24.7659 14.8869 24.657 15.2928 24.3787 15.5717L23.4288 16.5233L23.4612 16.5154C23.5286 16.8001 23.6115 17.081 23.7002 17.3817C23.7309 17.4864 23.7624 17.5933 23.7943 17.7037C23.9133 18.117 24.0318 18.563 24.0943 19.0202C24.1075 19.1175 24.1184 19.2154 24.1258 19.3138L26.1231 17.3132C27.0226 16.4121 27.3742 15.1003 27.0458 13.87L25.4513 7.89932C25.122 6.66594 24.1592 5.7021 22.9264 5.37167L16.9775 3.77785C15.7445 3.44771 14.4291 3.80072 13.5271 4.70425L9.16085 9.07789C8.26147 9.97905 7.90994 11.291 8.2383 12.5208L9.83271 18.492C10.1621 19.7254 11.1249 20.6887 12.3577 21.0192L16.1763 22.0423L18.1889 20.03Z" fill="white"/>
<path fill-rule="evenodd" clip-rule="evenodd" d="M12.7073 10.8266L17.8399 12.202C18.2216 12.3044 18.5197 12.6024 18.6215 12.9843L20.2158 18.9552C20.3174 19.336 20.2088 19.742 19.9302 20.0209L15.564 24.3948C15.285 24.6743 14.8777 24.7838 14.4961 24.6816L8.54749 23.0876C8.16582 22.9855 7.8679 22.6871 7.76587 22.3051L6.17147 16.3344C6.06974 15.9536 6.17874 15.5476 6.45705 15.2687L7.40544 14.3185C7.33905 14.0435 7.25886 13.771 7.17347 13.4802C7.14243 13.3756 7.11094 13.2684 7.07901 13.1581C6.96006 12.7449 6.84155 12.299 6.77903 11.842C6.76343 11.7264 6.75126 11.61 6.74338 11.4927L4.7125 13.5271C3.81298 14.4283 3.46145 15.7401 3.7901 16.9703L5.38436 22.9411C5.71361 24.1744 6.67655 25.1383 7.90963 25.4684L13.8581 27.0625C15.0912 27.3927 16.4068 27.0397 17.3086 26.1363L21.6748 21.7625C22.5742 20.8613 22.9258 19.5494 22.5973 18.3196L21.0029 12.3484C20.6737 11.115 19.711 10.1516 18.4779 9.8212L14.7199 8.8143L12.7073 10.8266ZM13.298 8.43322L12.5292 8.22724C11.2964 7.8968 9.98076 8.24981 9.07871 9.15335L8.52907 9.70418L8.53278 9.70715C8.02948 10.3446 7.94751 10.9747 8.04255 11.6697C8.09171 12.0304 8.18824 12.4026 8.30422 12.8048C8.33125 12.8986 8.35962 12.9955 8.38888 13.0939C8.40685 13.155 8.42512 13.2166 8.44294 13.279L10.8231 10.8946C10.8573 10.8605 10.8932 10.829 10.9309 10.8L13.298 8.43322Z" fill="white"/>
<path fill-rule="evenodd" clip-rule="evenodd" d="M52.3859 11.5914C53.7958 11.5914 54.9124 12.0031 55.7358 12.8267C56.5592 13.6361 56.9711 14.8573 56.9711 16.4906V22.8971H54.354V16.8257C54.354 15.8486 54.1378 15.1157 53.7052 14.6271C53.2724 14.1247 52.6513 13.8736 51.8415 13.8736C50.9623 13.8736 50.2575 14.1667 49.727 14.7528C49.1967 15.3251 48.9314 16.1486 48.9314 17.2234V22.8971H46.3144V16.8257C46.3144 15.8486 46.0982 15.1157 45.6654 14.6271C45.2328 14.1247 44.6116 13.8736 43.8019 13.8736C42.9089 13.8736 42.1971 14.1598 41.6665 14.732C41.1501 15.3042 40.8918 16.1348 40.8918 17.2234V22.8971H38.2748V11.7171H40.7665V13.1407C41.1848 12.6383 41.7085 12.2545 42.3365 11.9893C42.9647 11.724 43.6626 11.5914 44.4301 11.5914C45.2675 11.5914 46.0074 11.7521 46.6494 12.0729C47.3054 12.3799 47.8218 12.8407 48.1988 13.4549C48.6592 12.8685 49.2524 12.4149 49.9783 12.0938C50.7041 11.7591 51.5068 11.5914 52.3859 11.5914ZM60.3154 11.7171H62.9324V22.8971H60.3154V11.7171ZM61.6344 9.87463C61.1598 9.87463 60.7618 9.72806 60.441 9.43505C60.1198 9.12778 59.9594 8.75101 59.9594 8.30444C59.9594 7.85772 60.1198 7.48777 60.441 7.19476C60.7618 6.88779 61.1598 6.73438 61.6344 6.73438C62.1088 6.73438 62.5066 6.88082 62.8276 7.17397C63.1486 7.45303 63.309 7.809 63.309 8.24161C63.309 8.70214 63.1486 9.09302 62.8276 9.41425C62.5206 9.72122 62.1229 9.87463 61.6344 9.87463ZM77.4637 11.7171V21.2012C77.4637 25.1374 75.4536 27.1054 71.4339 27.1054C70.3593 27.1054 69.3402 26.9658 68.377 26.6866C67.414 26.4214 66.6186 26.0306 65.9904 25.514L67.1627 23.5459C67.6512 23.9509 68.2654 24.272 69.0053 24.5091C69.7588 24.7606 70.5197 24.8859 71.2873 24.8859C72.5155 24.8859 73.4159 24.607 73.9881 24.0488C74.5603 23.4904 74.8464 22.639 74.8464 21.4942V20.9081C74.3999 21.3967 73.8555 21.7665 73.2133 22.0177C72.5713 22.2689 71.8665 22.3945 71.0989 22.3945C70.038 22.3945 69.0751 22.1713 68.2096 21.7247C67.3582 21.2641 66.6811 20.622 66.179 19.7984C65.6904 18.9751 65.446 18.0331 65.446 16.972C65.446 15.9114 65.6904 14.9761 66.179 14.1667C66.6811 13.3431 67.3582 12.7081 68.2096 12.2615C69.0751 11.8149 70.038 11.5914 71.0989 11.5914C71.9085 11.5914 72.6411 11.724 73.2971 11.9893C73.9672 12.2545 74.5256 12.6594 74.9722 13.2035V11.7171H77.4637ZM71.4967 20.1755C72.4877 20.1755 73.2971 19.8823 73.9253 19.2963C74.5673 18.6959 74.8884 17.9212 74.8884 16.972C74.8884 16.0369 74.5673 15.2761 73.9253 14.6899C73.2971 14.1039 72.4877 13.8108 71.4967 13.8108C70.4916 13.8108 69.6683 14.1039 69.0262 14.6899C68.3981 15.2761 68.0839 16.0369 68.0839 16.972C68.0839 17.9212 68.3981 18.6959 69.0262 19.2963C69.6683 19.8823 70.4916 20.1755 71.4967 20.1755ZM83.3957 13.3501C84.1489 12.1777 85.4753 11.5914 87.3732 11.5914V14.083C87.1503 14.0409 86.9479 14.0202 86.7663 14.0202C85.7472 14.0202 84.9521 14.3201 84.3797 14.9203C83.8072 15.5066 83.5215 16.358 83.5215 17.4747V22.8971H80.9041V11.7171H83.3957V13.3501ZM100.42 11.7171V22.8971H97.9286V21.4525C97.4957 21.9827 96.9585 22.3807 96.3164 22.6459C95.688 22.9112 94.9909 23.0438 94.2233 23.0438C93.1344 23.0438 92.1573 22.8063 91.2917 22.3317C90.4404 21.8573 89.7708 21.1873 89.282 20.3219C88.8077 19.4567 88.5702 18.4517 88.5702 17.307C88.5702 16.1626 88.8077 15.1646 89.282 14.3132C89.7708 13.4479 90.4404 12.7779 91.2917 12.3032C92.1573 11.8289 93.1344 11.5914 94.2233 11.5914C94.9487 11.5914 95.6115 11.7171 96.2121 11.9683C96.8258 12.2195 97.3561 12.5896 97.803 13.0782V11.7171H100.42ZM94.5158 20.8035C95.4789 20.8035 96.2751 20.4824 96.9025 19.8404C97.531 19.1983 97.8448 18.3538 97.8448 17.307C97.8448 16.2601 97.531 15.4157 96.9025 14.7737C96.2751 14.1317 95.4789 13.8108 94.5158 13.8108C93.5526 13.8108 92.7573 14.1317 92.129 14.7737C91.5153 15.4157 91.2081 16.2601 91.2081 17.307C91.2081 18.3538 91.5153 19.1983 92.129 19.8404C92.7573 20.4824 93.5526 20.8035 94.5158 20.8035ZM110.188 11.5914C111.598 11.5914 112.728 12.0031 113.58 12.8267C114.431 13.6501 114.856 14.8716 114.856 16.4906V22.8971H112.24V16.8257C112.24 15.8486 112.009 15.1157 111.549 14.6271C111.088 14.1247 110.432 13.8736 109.581 13.8736C108.618 13.8736 107.857 14.1667 107.299 14.7528C106.741 15.3251 106.461 16.1556 106.461 17.2442V22.8971H103.844V11.7171H106.335V13.1618C106.768 12.6452 107.312 12.2545 107.969 11.9893C108.625 11.724 109.364 11.5914 110.188 11.5914ZM118.177 11.7171H120.794V22.8971H118.177V11.7171ZM119.496 9.87463C119.021 9.87463 118.623 9.72806 118.302 9.43505C117.981 9.12778 117.821 8.75101 117.821 8.30444C117.821 7.85772 117.981 7.48777 118.302 7.19476C118.623 6.88779 119.021 6.73438 119.496 6.73438C119.97 6.73438 120.368 6.88082 120.689 7.17397C121.01 7.45303 121.171 7.809 121.171 8.24161C121.171 8.70214 121.01 9.09302 120.689 9.41425C120.381 9.72122 119.984 9.87463 119.496 9.87463ZM135.053 11.7171V22.8971H132.561V21.4733C132.142 21.9759 131.619 22.3667 130.991 22.6459C130.363 22.9112 129.686 23.0438 128.96 23.0438C127.467 23.0438 126.287 22.632 125.422 21.8085C124.57 20.9709 124.144 19.7359 124.144 18.1029V11.7171H126.762V17.7466C126.762 18.7519 126.985 19.5052 127.432 20.0078C127.893 20.4963 128.542 20.7407 129.379 20.7407C130.314 20.7407 131.054 20.4545 131.598 19.8823C132.157 19.2963 132.436 18.4587 132.436 17.3698V11.7171H135.053ZM152.59 11.5914C154 11.5914 155.117 12.0031 155.94 12.8267C156.763 13.6361 157.175 14.8573 157.175 16.4906V22.8971H154.558V16.8257C154.558 15.8486 154.343 15.1157 153.909 14.6271C153.477 14.1247 152.855 13.8736 152.046 13.8736C151.166 13.8736 150.461 14.1667 149.931 14.7528C149.401 15.3251 149.136 16.1486 149.136 17.2234V22.8971H146.519V16.8257C146.519 15.8486 146.302 15.1157 145.87 14.6271C145.437 14.1247 144.816 13.8736 144.006 13.8736C143.113 13.8736 142.401 14.1598 141.871 14.732C141.354 15.3042 141.096 16.1348 141.096 17.2234V22.8971H138.48V11.7171H140.97V13.1407C141.39 12.6383 141.913 12.2545 142.541 11.9893C143.169 11.724 143.867 11.5914 144.635 11.5914C145.472 11.5914 146.211 11.7521 146.853 12.0729C147.51 12.3799 148.027 12.8407 148.403 13.4549C148.864 12.8685 149.457 12.4149 150.182 12.0938C150.908 11.7591 151.711 11.5914 152.59 11.5914Z" fill="white"/>
</g>
</svg>
