<svg width="35" height="35" viewBox="0 0 35 35" fill="none" xmlns="http://www.w3.org/2000/svg">
<g opacity="0.3">
<path d="M33.943 25.9149C34.1728 26.0478 34.1728 26.2603 33.9457 26.3905L32.4757 27.238C32.2485 27.3682 31.8796 27.3709 31.6498 27.238L30.1718 26.3905C29.9419 26.2603 29.9419 26.0451 30.1691 25.9149L31.6391 25.0674C31.8663 24.9345 32.2378 24.9372 32.465 25.0674L33.943 25.9149Z" fill="white"/>
<g opacity="0.29">
<path d="M30.7672 24.0956C30.9971 24.2258 30.9971 24.441 30.7699 24.5712L29.2999 25.4187C29.0727 25.5489 28.7012 25.5489 28.474 25.4187L26.996 24.5712C26.7661 24.4383 26.7661 24.2258 26.9933 24.0956L28.4633 23.2481C28.6905 23.1152 29.0593 23.1152 29.2892 23.2481L30.7672 24.0956Z" fill="white"/>
</g>
<path d="M30.6793 21.1952C30.9092 21.328 30.9092 21.5406 30.682 21.6707L29.212 22.5183C28.9848 22.6511 28.616 22.6511 28.3861 22.5183L26.9081 21.6707C26.6782 21.5406 26.6782 21.3254 26.9054 21.1952L28.3754 20.3476C28.6026 20.2175 28.9741 20.2175 29.2013 20.3476L30.6793 21.1952Z" fill="#58AFFB"/>
<path d="M30.7887 27.6952C31.0185 27.828 31.0185 28.0406 30.7914 28.1707L29.3214 29.0183C29.0942 29.1485 28.7253 29.1511 28.4955 29.0183L27.0175 28.1707C26.7876 28.0406 26.7876 27.8254 27.0148 27.6952L28.4848 26.8476C28.712 26.7175 29.0835 26.7175 29.3107 26.8476L30.7887 27.6952Z" fill="#58AFFB"/>
</g>
<path d="M30.4526 34.0689L32.1632 32.6768C32.6095 32.3128 32.8688 31.7708 32.8688 31.1969V11.9375C32.8688 11.9375 32.655 15.0115 31.3453 14.2994C29.7577 13.436 28.9078 15.8112 28.9078 15.8112L28.4374 14.3154C28.4374 14.3154 28.3652 14.8175 26.9032 14.3154C25.6096 13.869 30.4526 34.0689 30.4526 34.0689Z" fill="#D7DBDF"/>
<path d="M31.1258 18.5173L32.8417 17.4891L32.8336 12.5367C32.8336 12.5367 32.9486 10.7248 31.818 10.1881L14.1726 0.13197C13.8973 -0.0247829 13.5632 -0.0433808 13.2719 0.0841473L11.4838 0.865257L11.1123 1.46304L31.1258 18.5173Z" fill="#753939"/>
<path d="M31.1262 33.1755V12.136C31.1262 11.8119 30.9498 11.5116 30.6611 11.3549L12.3769 1.33065C11.7782 1.00385 11.0459 1.43161 11.0459 2.11176V22.8218C11.0459 23.1433 11.2196 23.4382 11.5003 23.5976L29.7871 33.9513C30.3832 34.2887 31.1262 33.8583 31.1262 33.1755Z" fill="#F9F9F9"/>
<path d="M11.0454 7.12732L31.1257 18.5119V12.1355C31.1257 12.1355 31.1712 11.5961 30.6607 11.3543L11.5372 0.835938C11.5372 0.835938 11.0668 0.960809 11 2.00229L11.0454 7.12732Z" fill="#AA5757"/>
<path d="M15.3523 7.14941C15.9956 7.04988 16.4194 6.34627 16.2991 5.57784C16.1788 4.80941 15.5598 4.26715 14.9166 4.36667C14.2734 4.4662 13.8495 5.16981 13.9698 5.93824C14.0901 6.70667 14.7091 7.24893 15.3523 7.14941Z" fill="#663333"/>
<path d="M26.8055 13.6416C27.4487 13.5421 27.8726 12.8385 27.7522 12.07C27.6319 11.3016 27.0129 10.7593 26.3697 10.8589C25.7265 10.9584 25.3026 11.662 25.4229 12.4304C25.5433 13.1989 26.1622 13.7411 26.8055 13.6416Z" fill="#663333"/>
<path d="M26.9718 11.0226C27.0012 11.0146 27.0092 11.0014 27.028 10.9801C27.028 10.9801 27.4369 11.1315 27.5438 11.5008C27.5438 11.5008 26.1059 12.1837 25.6194 11.1342C25.2586 10.3531 25.7744 7.675 27.6213 7.22334C29.4682 6.77168 29.2624 8.74836 29.2624 8.74836L28.5487 8.32593C28.5487 8.32593 28.2628 7.18083 27.1776 8.19309C26.0925 9.20534 25.7263 11.3786 26.9718 11.0226Z" fill="#D7DBDF"/>
<path d="M19.8389 14.3125V17.1314L22.1588 18.3854V15.6064L19.8389 14.3125Z" fill="#D7DBDF"/>
<path d="M16.623 12.4844V15.3033L18.943 16.5573V13.7783L16.623 12.4844Z" fill="#D7DBDF"/>
<path d="M13.1484 10.625V13.4439L15.4684 14.6979V11.9189L13.1484 10.625Z" fill="#D7DBDF"/>
<path d="M23.2861 16.3516V19.1705L25.6061 20.4245V17.6428L23.2861 16.3516Z" fill="#D7DBDF"/>
<path d="M13.1064 14.9297V17.7486L15.4264 19.0053V16.2236L13.1064 14.9297Z" fill="#D7DBDF"/>
<path d="M16.5537 16.9688V19.7877L18.8736 21.0417V18.2626L16.5537 16.9688Z" fill="#D7DBDF"/>
<path d="M13.1064 19.4609V22.2798L15.4264 23.5339V20.7548L13.1064 19.4609Z" fill="#D7DBDF"/>
<path d="M16.5537 21.5V24.3189L18.8736 25.5729V22.7939L16.5537 21.5Z" fill="#D7DBDF"/>
<path d="M19.8389 18.8125V21.6314L22.1588 22.8854V20.1037L19.8389 18.8125Z" fill="#D7DBDF"/>
<path d="M23.2861 20.8516V23.6705L25.6061 24.9271V22.1454L23.2861 20.8516Z" fill="#D7DBDF"/>
<path d="M19.8389 23.3359V26.1575L22.1588 27.4115V24.6298L19.8389 23.3359Z" fill="#D7DBDF"/>
<path d="M23.2861 25.375V28.1939L25.6061 29.4506V26.6689L23.2861 25.375Z" fill="#D7DBDF"/>
<path d="M26.5879 18.1641V20.983L28.9078 22.2396V19.4579L26.5879 18.1641Z" fill="#AA5757"/>
<path d="M26.5879 22.6641V25.483L28.9078 26.737V23.9579L26.5879 22.6641Z" fill="#AA5757"/>
<path d="M15.5041 4.50528C15.5335 4.49731 15.5281 4.49731 15.5468 4.47872C15.5468 4.47872 15.9718 4.61421 16.076 4.98617C16.076 4.98617 14.6381 5.66898 14.1517 4.61953C13.7908 3.83842 14.3067 1.16033 16.1535 0.708666C18.0004 0.257004 17.7973 2.20181 17.7973 2.20181L17.081 1.79531C17.081 1.79531 16.795 0.668814 15.7099 1.67841C14.6247 2.68801 14.2612 4.8613 15.5041 4.50528Z" fill="#D7DBDF"/>
<path d="M0.184672 18.2068C0.200101 18.158 0.24382 18.0345 0.261822 17.996C0.29011 17.8571 1.18505 16.1932 6.35151 6.43122C6.5341 6.10461 6.83755 5.93231 6.97642 6.02489C6.997 6.03261 14.3108 10.2836 14.3288 10.2938C14.3211 10.2887 14.3159 10.2861 14.3057 10.2836C14.4908 10.3633 14.5088 10.677 14.3468 10.9805L8.45513 22.1132C8.30083 22.4038 8.21597 22.7124 8.21597 22.9824L8.21854 24.0111L14.3725 27.5883C14.4522 27.6346 14.5037 27.7323 14.5037 27.8737C14.5062 28.154 14.3057 28.4961 14.0639 28.6375L8.52199 31.8366C8.43199 31.8881 8.34455 31.9267 8.25968 31.9524C8.04366 32.0218 7.84822 32.0064 7.69649 31.9215C0.0766618 27.4931 0.248963 27.6346 0.164098 27.4648C0.161526 27.4622 0.133238 27.416 0.117808 27.3825C0.107521 27.3645 0.0792334 27.2925 0.0740901 27.2694C-0.00820302 27.1074 0.0226567 27.2951 -0.000488281 19.2355C0.00465504 18.8883 0.0792335 18.5052 0.184672 18.2068Z" fill="#254DA1"/>
<path d="M0.00488281 19.2344L0.0254546 26.9108C0.0280263 26.9159 0.0280268 26.9699 0.0280268 26.9699C0.0305985 26.9879 0.0305996 27.0059 0.0331712 27.0239C0.0331712 27.0291 0.0357415 27.0342 0.0357415 27.0394C0.0357415 27.0419 0.0383137 27.0471 0.0383137 27.0496C0.0408853 27.0599 0.0408859 27.0702 0.0408859 27.0779C0.0434576 27.0985 0.0460289 27.1165 0.0486006 27.1345C0.0511722 27.1422 0.0511714 27.1499 0.053743 27.1577C0.0563147 27.1628 0.0563152 27.1679 0.0563152 27.1731C0.0588869 27.1782 0.058888 27.1859 0.0614596 27.1937C0.066603 27.2142 0.0717457 27.2348 0.076889 27.2528C0.0794606 27.2605 0.082032 27.2657 0.0846036 27.2708C0.0871753 27.2785 0.0871744 27.2837 0.0897461 27.2888C0.0923178 27.2991 0.0948911 27.3068 0.0974627 27.3145C0.105178 27.3351 0.112892 27.3557 0.123179 27.3737C0.138609 27.4097 0.154039 27.4354 0.169469 27.4611C0.174612 27.4714 0.179754 27.474 0.182326 27.4791C0.195184 27.4997 0.210616 27.5177 0.226046 27.5357C0.233761 27.5434 0.238903 27.5486 0.246617 27.5563C0.259476 27.5717 0.274907 27.5846 0.290337 27.6C0.298052 27.6051 0.303194 27.6103 0.310909 27.6154C0.334054 27.6334 0.354628 27.6488 0.377773 27.6617L7.707 31.9204C7.85873 32.0052 8.05418 32.0207 8.27019 31.9512L7.34183 23.493L0.00488281 19.2344Z" fill="#25437F"/>
<path d="M14.0122 10.3253C13.8888 10.3973 13.7679 10.5259 13.6805 10.6905L7.78881 21.8232C7.49307 22.3838 7.33105 22.9778 7.33105 23.4922L7.35163 31.1686C7.35163 31.5363 7.48535 31.7986 7.69623 31.9169C7.90711 32.0378 8.20028 32.0172 8.52173 31.8321L14.0637 28.6329C14.308 28.4915 14.506 28.1495 14.506 27.8691C14.506 27.5888 14.3054 27.4757 14.0611 27.6171L8.51916 30.8163C8.43944 30.8626 8.37515 30.8651 8.32115 30.8368C8.26971 30.806 8.23885 30.7468 8.23885 30.6568L8.21828 22.9804C8.21828 22.7104 8.30314 22.4018 8.45487 22.1112L14.3465 10.9785C14.506 10.675 14.488 10.3639 14.3054 10.2841C14.2205 10.2481 14.1177 10.2661 14.0122 10.3253Z" fill="#213B70"/>
<path d="M0.956055 18.0303L7.19233 21.6307L12.9143 10.6394L6.678 7.03906L0.956055 18.0303Z" fill="white"/>
<path opacity="0.35" d="M12.5442 10.7523L6.79144 7.42969L1.32666 17.9298L7.07946 21.2524L12.5442 10.7523Z" fill="#A6D0F4"/>
<path d="M6.36133 8.91259L6.65707 7.76562L6.79337 7.8402L6.63392 8.41625C6.59535 8.5577 6.5542 8.69914 6.5182 8.80458L6.52077 8.80715C6.59278 8.71714 6.68793 8.61427 6.79594 8.50369L7.20998 8.06908L7.34627 8.14366L7.1894 8.72228C7.1534 8.85601 7.11483 8.99231 7.07111 9.10546L7.07368 9.10803C7.15597 9.00774 7.24598 8.91259 7.34627 8.80458L7.75774 8.36997L7.89146 8.44197L7.05311 9.29319L6.91681 9.21861L7.07625 8.62456C7.11482 8.47797 7.14826 8.36997 7.19198 8.25938L7.1894 8.25681C7.1174 8.34682 7.04025 8.43426 6.93224 8.54227L6.5002 8.98716L6.36133 8.91259Z" fill="black"/>
<path d="M7.71127 9.24457L7.43353 9.50431L7.2998 9.42973L8.19474 8.60938L8.35161 8.69424L8.14331 9.89006L8.00444 9.81291L8.0713 9.43745L7.71127 9.24457ZM8.09702 9.3243L8.15617 8.97969C8.16903 8.90254 8.18702 8.83311 8.20503 8.76625L8.20246 8.76367C8.15359 8.81511 8.10473 8.86654 8.05073 8.91797L7.79356 9.15457L8.09702 9.3243Z" fill="black"/>
<path d="M8.97117 9.03294L8.41826 10.0385L8.28711 9.96646L8.84001 8.96094L8.97117 9.03294Z" fill="black"/>
<path d="M9.32908 9.3793L9.02305 9.21214L9.08477 9.10156L9.83055 9.51046L9.76883 9.62104L9.46023 9.45131L8.96904 10.3462L8.83789 10.2742L9.32908 9.3793Z" fill="black"/>
<path d="M9.94096 9.5625L10.0721 9.63451L9.58093 10.532L10.0104 10.7686L9.95125 10.8766L9.39062 10.5706L9.94096 9.5625Z" fill="black"/>
<path d="M10.7768 10.0251L10.2239 11.0307L10.0928 10.9586L10.6457 9.95312L10.7768 10.0251Z" fill="black"/>
<path d="M10.5193 10.9875C10.5579 11.0543 10.6273 11.1315 10.7174 11.1803C10.8511 11.2523 10.9668 11.2266 11.0234 11.1238C11.0748 11.0286 11.0517 10.9463 10.9437 10.8203C10.8125 10.6711 10.7559 10.5323 10.8331 10.3883C10.9179 10.2314 11.1134 10.1851 11.3088 10.2931C11.4117 10.3497 11.4734 10.414 11.5043 10.4654L11.4091 10.5528C11.386 10.5168 11.3346 10.45 11.2445 10.4011C11.1082 10.3265 11.0105 10.378 10.972 10.4474C10.9205 10.5426 10.9565 10.6223 11.0645 10.7509C11.1983 10.9103 11.2394 11.0389 11.1597 11.188C11.0748 11.3423 10.8845 11.4144 10.6479 11.2858C10.5502 11.2318 10.4602 11.1469 10.4268 11.08L10.5193 10.9875Z" fill="black"/>
<path d="M11.872 10.7699L11.566 10.6028L11.6277 10.4922L12.3735 10.9011L12.3118 11.0117L12.0032 10.8419L11.512 11.7369L11.3809 11.6649L11.872 10.7699Z" fill="black"/>
<path d="M6.93521 12.4515C7.59707 12.4515 8.1336 11.9149 8.1336 11.2531C8.1336 10.5912 7.59707 10.0547 6.93521 10.0547C6.27336 10.0547 5.73682 10.5912 5.73682 11.2531C5.73682 11.9149 6.27336 12.4515 6.93521 12.4515Z" fill="white"/>
<path d="M6.60605 10.5035C6.26145 10.7812 6.5829 11.2313 6.35403 11.3804C6.28716 11.4293 5.79083 11.4576 5.86798 11.7842C5.8937 11.8922 6.58291 12.4657 6.77064 12.3062C6.95837 12.1468 6.85293 11.6453 6.9738 11.3804C7.09467 11.1156 7.45984 10.8893 7.29011 10.6861C7.12038 10.4804 6.87864 10.2643 6.60605 10.5035Z" fill="#261917"/>
<path d="M5.78076 11.5726C6.12794 11.174 6.20509 11.3926 6.5574 11.4234C7.11803 11.7114 7.24146 11.9506 7.24146 11.9506C7.24146 11.9506 7.39319 12.1126 7.37776 12.1769C7.37776 12.1769 7.35462 12.3621 7.2749 12.3981C7.2749 12.3981 6.96116 12.5601 6.3851 12.3132C5.9222 12.1152 5.78076 11.5726 5.78076 11.5726Z" fill="#C7D8F2"/>
<path d="M6.55728 11.3984C6.34898 11.419 6.46727 11.9205 6.53157 12.0542C6.59329 12.1442 6.82731 11.9462 6.82731 11.9462C7.0819 12.2651 7.17962 12.0465 7.06647 11.7225C7.03818 11.6582 6.68072 11.419 6.55728 11.3984Z" fill="white"/>
<path d="M7.08466 11.6232C7.05894 11.6721 7.02294 11.7929 6.99722 11.847C6.85321 12.0321 6.49061 11.6952 6.51375 11.4766C6.53176 11.4561 6.66548 11.2015 6.71948 11.0703L7.08466 11.6232Z" fill="#CF6C45"/>
<path d="M7.63187 11.0382C7.90704 10.0584 6.16088 9.98127 6.67264 11.2902C6.90409 11.964 7.42356 11.6837 7.63187 11.0382Z" fill="#D97E47"/>
<path d="M6.69331 10.9244C6.57501 10.4795 6.45928 11.0118 6.61616 11.1327C6.70616 11.1661 6.69331 10.9244 6.69331 10.9244Z" fill="#D97E47"/>
<path d="M7.44732 10.7333C7.30845 10.6073 7.131 11.0008 6.93298 10.9314C6.67582 10.9262 6.43408 10.8028 6.55238 10.5482C6.85069 9.9927 7.91793 10.255 7.72506 10.9905C7.66334 11.2014 7.58104 11.1731 7.58104 11.1731C7.58104 11.1731 7.74563 10.8645 7.44732 10.7333Z" fill="#261917"/>
<path d="M9.35285 14.0084C10.0218 14.0084 10.5641 13.4661 10.5641 12.7972C10.5641 12.1282 10.0218 11.5859 9.35285 11.5859C8.6839 11.5859 8.1416 12.1282 8.1416 12.7972C8.1416 13.4661 8.6839 14.0084 9.35285 14.0084Z" fill="white"/>
<path d="M8.98242 13.9488L9.11872 13.8819C9.26273 13.8048 9.45561 13.7559 9.54047 13.8819C9.54047 13.8819 9.58419 13.9617 9.55847 13.9951C9.56105 13.9951 9.20358 14.044 8.98242 13.9488Z" fill="#113569"/>
<path d="M9.51965 13.9366C9.54279 13.8775 9.41421 13.7052 9.41421 13.7052C9.41421 13.7052 9.32421 13.4635 8.82273 13.1266C8.82273 13.1266 8.35212 13.0494 8.21582 13.1317" fill="white"/>
<path d="M8.98215 13.571C8.88443 13.4965 8.74299 13.3293 8.77385 13.1699C8.79442 13.1519 8.94872 12.9256 9.01558 12.8047L9.30104 13.3705C9.30104 13.3705 9.29589 13.3756 9.29075 13.3859C9.27018 13.427 9.21874 13.5325 9.1956 13.5736C9.16988 13.6122 9.08245 13.6456 8.98215 13.571Z" fill="#E16B40"/>
<path d="M8.59418 13.3252C8.58132 13.2069 8.66104 13.1092 8.66104 13.1092L8.8282 13.0938C8.8282 13.0938 8.7279 13.3972 9.00307 13.5875" fill="white"/>
<path d="M9.06263 13.8365C9.06263 13.8365 9.23493 13.8262 9.32237 13.569L9.26065 13.4688C9.26065 13.4688 9.18607 13.5973 9.02148 13.5948" fill="white"/>
<path d="M9.99362 12.8598C10.1479 12.5383 10.0399 12.2169 9.74417 12.0909C9.74417 12.0909 9.451 11.9186 9.15269 12.0703C8.85437 12.222 8.88523 12.5538 8.9058 12.7646C8.91609 12.8521 8.92381 12.9189 8.92638 12.9627C8.92638 12.9781 8.92895 12.9935 8.93152 13.009C8.93152 13.0115 8.93152 13.0141 8.93152 13.0141C8.9521 13.1504 9.00867 13.2584 9.06268 13.3278C9.14754 13.441 9.29155 13.5181 9.41757 13.495C9.54358 13.4693 9.83932 13.1787 9.99362 12.8598Z" fill="#FF8654"/>
<path d="M8.43969 13.5933L8.49883 13.3747C8.53226 13.1253 8.65828 13.1073 8.65828 13.1073C8.58627 13.079 8.36511 13.0713 8.1748 13.0842C8.17738 13.0867 8.25453 13.4159 8.43969 13.5933Z" fill="#113C7A"/>
<path d="M9.50691 13.9874C9.59177 13.8485 9.54034 13.9823 9.54034 13.8845C9.54034 13.8383 9.3809 13.6402 9.35004 13.6094C9.35004 13.6094 9.36804 13.6428 9.10059 13.9823" fill="#113C7A"/>
<path d="M9.3859 11.8621C9.3859 11.8621 9.59164 11.7618 9.82823 11.9058C10.0648 12.0498 10.0648 12.1681 10.1548 12.2479C10.2448 12.3276 10.3657 12.343 10.3554 12.4973C10.3451 12.6516 10.052 12.7493 10.052 12.7493C10.052 12.7493 9.99024 12.6748 9.77165 12.811C9.55306 12.9473 9.30875 12.6953 9.26503 12.6336L9.14674 12.6953L9.08244 12.7828L9.0233 12.7236C9.0233 12.7236 9.12873 12.6387 9.09016 12.5513C9.05158 12.4639 8.97444 12.5256 8.94358 12.5925C8.91015 12.6568 8.90757 12.8625 8.96672 12.9628L8.89471 12.9988L8.84842 13.0245C8.84842 13.0245 8.80471 12.8599 8.79956 12.7673C8.79442 12.6748 8.69155 12.6722 8.7507 12.3919C8.80985 12.109 8.95901 11.9675 9.11588 11.9341C9.27275 11.9007 9.27275 11.9007 9.27275 11.9007L9.3859 11.8621Z" fill="#4A2315"/>
<path d="M8.875 13.6349L9.00873 13.5938L9.03959 13.7378L8.90586 13.7789L8.875 13.6349Z" fill="#113C7A"/>
<path d="M8.76367 13.8579C8.76367 13.8579 8.87682 13.6933 8.91025 13.7036C8.94369 13.7139 8.97969 13.7396 8.95655 13.8065C8.9334 13.8733 8.89225 13.9196 8.89225 13.9196C8.89225 13.9196 8.78425 13.8862 8.76367 13.8579Z" fill="#113C7A"/>
<path d="M5.7522 14.9585C6.4311 14.9585 6.98145 14.4082 6.98145 13.7293C6.98145 13.0504 6.4311 12.5 5.7522 12.5C5.0733 12.5 4.52295 13.0504 4.52295 13.7293C4.52295 14.4082 5.0733 14.9585 5.7522 14.9585Z" fill="white"/>
<path d="M5.13002 14.7888C4.64141 14.5008 4.54883 14.0096 4.54883 14.0096C4.66712 13.9196 5.37176 13.9504 5.37176 13.9504C5.87323 14.2179 5.9941 14.4159 5.9941 14.4159C5.9941 14.4159 6.29498 14.7142 6.14583 14.8942C6.14583 14.8942 5.63921 15.0871 5.13002 14.7888Z" fill="#C4BFBF"/>
<path d="M5.84492 14.1369C5.84492 14.1369 5.83977 14.142 5.83463 14.1523C5.8192 14.1909 5.78063 14.2963 5.76262 14.3374C5.74462 14.376 5.66233 14.4172 5.56461 14.3554C5.46431 14.2937 5.31773 14.1523 5.33316 13.998C5.35116 13.98 5.4746 13.7537 5.52603 13.6328L5.84492 14.1369Z" fill="#84301C"/>
<path d="M6.46212 13.5751C6.57528 13.2614 6.44669 12.9682 6.15609 12.8782C6.15609 12.8782 5.8655 12.7444 5.60062 12.9142C5.33574 13.0839 5.39489 13.3925 5.43603 13.5905C5.45403 13.6728 5.46689 13.7345 5.47461 13.7731C5.47718 13.7885 5.47975 13.8014 5.48232 13.8168C5.48232 13.8194 5.48232 13.822 5.48232 13.822C5.51575 13.948 5.57747 14.0431 5.63405 14.1023C5.72663 14.2 5.86807 14.2592 5.98379 14.2257C6.09695 14.1897 6.3464 13.8914 6.46212 13.5751Z" fill="#AA4729"/>
<path d="M6.12254 12.8257C6.87089 13.0983 6.45943 13.5715 6.45943 13.5715C6.462 13.4815 6.41571 13.4686 6.41571 13.4686C6.31798 13.5561 5.88852 13.2706 5.88852 13.2706C5.86537 13.2372 5.82165 13.2346 5.79337 13.2629L5.6365 13.5098L5.58506 13.5972L5.52334 13.5484C5.52334 13.5484 5.61592 13.4583 5.56963 13.3812C5.52334 13.3015 5.45905 13.3683 5.43591 13.4326C5.42048 13.4712 5.42819 13.5535 5.44619 13.6358C5.45648 13.6898 5.46419 13.7104 5.47191 13.7541L5.43591 13.8184L5.41019 13.8672C5.41019 13.8672 5.33561 13.6975 5.32018 13.6101C5.30475 13.5226 5.23789 13.5612 5.26618 13.2912C5.28161 13.1446 5.36647 13.0135 5.46419 12.9183C5.59021 12.7923 5.77279 12.7409 5.94766 12.7769C5.9991 12.7871 6.05825 12.8026 6.12254 12.8257Z" fill="#231009"/>
<path d="M2.27045 17.5015C2.32445 17.6018 2.47361 17.7972 2.67934 17.9104C3.06252 18.1238 3.31454 17.9464 3.41484 17.7612C3.58199 17.4526 3.37883 17.1646 3.09338 17.0051L2.92622 16.9126L3.04966 16.6888L3.21425 16.7814C3.43027 16.9023 3.76715 16.9434 3.91117 16.6837C4.00889 16.5088 3.98574 16.2902 3.71058 16.1385C3.5357 16.0408 3.32226 16.0228 3.1911 16.0382L3.23482 15.7785C3.39683 15.7579 3.66686 15.799 3.90345 15.9302C4.33549 16.1719 4.38949 16.5371 4.24034 16.8045C4.11433 17.0309 3.87002 17.1492 3.54599 17.0951L3.54342 17.1029C3.78258 17.3086 3.89059 17.6326 3.71829 17.9412C3.52285 18.2935 3.07538 18.4478 2.54819 18.1521C2.30131 18.0132 2.12901 17.8152 2.05957 17.6841L2.27045 17.5015Z" fill="black"/>
<path d="M4.46684 17.6966C4.57485 17.5037 4.66229 17.3366 4.73686 17.1797L4.9966 17.3237L4.82687 17.6503L4.83973 17.658C5.03775 17.4806 5.29234 17.442 5.49293 17.5526C5.52636 17.5706 5.54951 17.5886 5.57265 17.6092L5.41578 17.8895C5.39006 17.8663 5.36178 17.8457 5.32063 17.8226C5.11233 17.7069 4.87316 17.7815 4.70858 17.982C4.68029 18.018 4.64686 18.0618 4.61857 18.1132L4.13252 18.985L3.83936 18.8204L4.46684 17.6966Z" fill="black"/>
<path d="M7.66324 17.8078L6.56 19.7854C6.4777 19.932 6.39027 20.0991 6.33883 20.2149L6.07138 20.0657L6.21539 19.7751L6.20768 19.7725C6.0148 19.9037 5.73706 19.932 5.46961 19.7828C5.07358 19.5617 4.95785 19.0576 5.23302 18.5613C5.5339 18.0161 6.05852 17.8695 6.45713 18.0907C6.70658 18.2295 6.80945 18.443 6.81202 18.6153L6.81973 18.6179L7.36492 17.6406L7.66324 17.8078ZM6.56771 19.0705C6.58829 19.0345 6.614 18.9805 6.62429 18.9367C6.68601 18.7233 6.61143 18.4764 6.3877 18.353C6.0791 18.1807 5.74735 18.3504 5.54419 18.7104C5.35903 19.0422 5.36932 19.4048 5.69077 19.5848C5.89136 19.6954 6.14596 19.6671 6.32598 19.4742C6.35941 19.4382 6.38512 19.3996 6.41084 19.3534L6.56771 19.0705Z" fill="black"/>
</svg>
